<?xml version="1.0" encoding="UTF-8" standalone="no"?>
<!DOCTYPE svg PUBLIC "-//W3C//DTD SVG 1.1//EN" "http://www.w3.org/Graphics/SVG/1.1/DTD/svg11.dtd">
<svg width="100%" height="100%" viewBox="0 0 956 342" version="1.1" xmlns="http://www.w3.org/2000/svg" xmlns:xlink="http://www.w3.org/1999/xlink" xml:space="preserve" xmlns:serif="http://www.serif.com/" style="fill-rule:evenodd;clip-rule:evenodd;stroke-linejoin:round;stroke-miterlimit:2;">
    <g id="Artboard1" transform="matrix(0.882485,0,0,0.917548,-984.269,-1015.06)">
        <rect x="1115.34" y="1106.28" width="1082.47" height="372.51" style="fill:none;"/>
        <g transform="matrix(4.72152,0,0,4.54109,-215.109,-101.07)">
            <g id="Layer-1" serif:id="Layer 1">
                <g>
                    <g transform="matrix(1,0,0,1,372.465,302.098)">
                        <path d="M0,-11.244L0,-3.896C0,-2.756 0.058,-1.968 0.174,-1.532C0.29,-1.095 0.581,-0.724 1.045,-0.418C1.509,-0.111 2.107,0.041 2.84,0.041C3.712,0.041 4.381,-0.09 4.846,-0.354C5.31,-0.619 5.618,-0.973 5.769,-1.421C5.92,-1.868 5.997,-2.657 5.997,-3.791L5.997,-11.244L4.297,-11.244L4.297,-13.081L10.04,-13.081L10.04,-11.244L8.203,-11.244L8.203,-3.569C8.203,-2.534 8.159,-1.783 8.071,-1.315C7.983,-0.847 7.745,-0.358 7.358,0.153C6.971,0.662 6.425,1.071 5.722,1.377C5.018,1.683 4.163,1.837 3.156,1.837C2.044,1.837 1.119,1.694 0.38,1.409C-0.359,1.123 -0.915,0.742 -1.288,0.263C-1.661,-0.215 -1.91,-0.725 -2.032,-1.268C-2.156,-1.81 -2.218,-2.651 -2.218,-3.791L-2.218,-11.244L-4.033,-11.244L-4.033,-13.081L1.741,-13.081L1.741,-11.244L0,-11.244Z" style="fill:rgb(0,123,195);fill-rule:nonzero;"/>
                    </g>
                    <g transform="matrix(1,0,0,1,384.986,291.003)">
                        <path d="M0,10.862L0,-0.148L-2.101,-0.148L-2.101,-1.985L2.912,-1.985L9.354,9.43L9.354,-0.148L7.274,-0.148L7.274,-1.985L13.302,-1.985L13.302,-0.148L11.138,-0.148L11.138,12.847L8.862,12.847L1.816,0.313L1.816,10.862L3.917,10.862L3.917,12.7L-2.101,12.7L-2.101,10.862L0,10.862Z" style="fill:rgb(0,123,195);fill-rule:nonzero;"/>
                    </g>
                    <g transform="matrix(1,0,0,1,400.6,290.856)">
                        <path d="M0,11.009L0,-0.001L-1.584,-0.001L-1.584,-1.838L3.801,-1.838L3.801,-0.001L2.217,-0.001L2.217,11.009L3.801,11.009L3.801,12.847L-1.584,12.847L-1.584,11.009L0,11.009Z" style="fill:rgb(0,123,195);fill-rule:nonzero;"/>
                    </g>
                    <g transform="matrix(1,0,0,1,410.196,290.856)">
                        <path d="M0,11.009L0,-0.001L-3.03,-0.001L-3.03,3.747L-4.846,3.747L-4.846,-1.838L7.053,-1.838L7.053,3.747L5.237,3.747L5.237,-0.001L2.217,-0.001L2.217,11.009L4.128,11.009L4.128,12.847L-1.879,12.847L-1.879,11.009L0,11.009Z" style="fill:rgb(0,123,195);fill-rule:nonzero;"/>
                    </g>
                    <g transform="matrix(1,0,0,1,419.983,290.856)">
                        <path d="M0,11.009L0,-0.001L-1.9,-0.001L-1.9,-1.838L10.305,-1.838L10.305,2.585L8.488,2.585L8.488,-0.001L2.218,-0.001L2.218,4.369L7.676,4.369L7.676,6.206L2.218,6.206L2.218,11.009L8.488,11.009L8.488,8.338L10.305,8.338L10.305,12.847L-1.9,12.847L-1.9,11.009L0,11.009Z" style="fill:rgb(0,123,195);fill-rule:nonzero;"/>
                    </g>
                    <g transform="matrix(1,0,0,1,435.491,290.856)">
                        <path d="M0,11.009L1.161,11.009C2.457,11.009 3.483,10.929 4.239,10.767C4.995,10.604 5.635,10.328 6.155,9.938C6.676,9.547 7.098,8.958 7.421,8.17C7.746,7.382 7.907,6.453 7.907,5.382C7.907,4.109 7.642,3.028 7.11,2.141C6.579,1.255 5.9,0.676 5.072,0.405C4.246,0.134 2.974,-0.001 1.256,-0.001L0,-0.001L0,11.009ZM-2.216,11.009L-2.216,-0.001L-4.212,-0.001L-4.212,-1.838L1.467,-1.838C3.037,-1.838 4.246,-1.758 5.095,-1.596C5.942,-1.433 6.763,-1.068 7.559,-0.498C8.354,0.072 8.99,0.855 9.464,1.851C9.94,2.847 10.177,3.982 10.177,5.256C10.177,6.707 9.949,7.965 9.492,9.036C9.033,10.105 8.434,10.904 7.691,11.432C6.948,11.96 6.065,12.328 5.041,12.536C4.017,12.743 2.713,12.847 1.13,12.847L-4.212,12.847L-4.212,11.009L-2.216,11.009Z" style="fill:rgb(0,123,195);fill-rule:nonzero;"/>
                    </g>
                    <g transform="matrix(1,0,0,1,381.628,317.399)">
                        <path d="M0,2.736L1.911,3.801C1.482,5.434 0.614,6.7 -0.692,7.597C-1.997,8.495 -3.498,8.943 -5.194,8.943C-7.418,8.943 -9.202,8.222 -10.547,6.78C-11.891,5.336 -12.563,3.552 -12.563,1.426C-12.563,-0.903 -11.887,-2.758 -10.536,-4.137C-9.185,-5.517 -7.422,-6.207 -5.247,-6.207C-3.326,-6.207 -1.71,-5.682 -0.401,-4.633L-0.401,-5.974L1.499,-5.974L1.499,-1.255L-0.401,-1.255C-0.823,-2.212 -1.475,-2.952 -2.354,-3.477C-3.234,-4.001 -4.159,-4.264 -5.131,-4.264C-6.595,-4.264 -7.796,-3.735 -8.736,-2.681C-9.676,-1.624 -10.145,-0.291 -10.145,1.321C-10.145,2.975 -9.642,4.327 -8.636,5.375C-7.629,6.424 -6.437,6.948 -5.057,6.948C-3.923,6.948 -2.893,6.584 -1.963,5.855C-1.035,5.127 -0.38,4.087 0,2.736" style="fill:rgb(0,123,195);fill-rule:nonzero;"/>
                    </g>
                    <g transform="matrix(1,0,0,1,388.068,318.825)">
                        <path d="M0,-0.116C0,1.496 0.472,2.846 1.415,3.938C2.357,5.029 3.596,5.574 5.131,5.574C6.651,5.574 7.9,5.017 8.879,3.901C9.857,2.786 10.346,1.454 10.346,-0.095C10.346,-1.657 9.848,-2.979 8.852,-4.06C7.856,-5.14 6.605,-5.68 5.099,-5.68C3.6,-5.68 2.375,-5.149 1.425,-4.086C0.475,-3.023 0,-1.699 0,-0.116M-2.418,-0.126C-2.418,-2.259 -1.721,-4.043 -0.327,-5.479C1.066,-6.915 2.882,-7.633 5.12,-7.633C7.379,-7.633 9.22,-6.915 10.642,-5.479C12.063,-4.043 12.774,-2.246 12.774,-0.084C12.774,2.119 12.051,3.937 10.604,5.369C9.159,6.801 7.319,7.517 5.089,7.517C3.667,7.517 2.359,7.178 1.167,6.499C-0.026,5.819 -0.922,4.872 -1.52,3.658C-2.118,2.444 -2.418,1.182 -2.418,-0.126" style="fill:rgb(0,123,195);fill-rule:nonzero;"/>
                    </g>
                    <g transform="matrix(1,0,0,1,404.116,313.41)">
                        <path d="M0,10.863L0,-0.149L-2.101,-0.149L-2.101,-1.985L2.912,-1.985L9.354,9.43L9.354,-0.149L7.274,-0.149L7.274,-1.985L13.303,-1.985L13.303,-0.149L11.138,-0.149L11.138,12.848L8.862,12.848L1.816,0.314L1.816,10.863L3.917,10.863L3.917,12.7L-2.101,12.7L-2.101,10.863L0,10.863Z" style="fill:rgb(0,123,195);fill-rule:nonzero;"/>
                    </g>
                    <g transform="matrix(1,0,0,1,418.209,311.425)">
                        <path d="M0,14.684L0,9.353L1.838,9.353L1.838,10.651C2.717,12.25 3.868,13.048 5.289,13.048C6.014,13.048 6.626,12.826 7.127,12.382C7.626,11.94 7.876,11.359 7.876,10.64C7.876,9.944 7.672,9.442 7.264,9.136C6.855,8.83 6.085,8.527 4.951,8.223C3.635,7.871 2.66,7.539 2.027,7.226C1.394,6.912 0.889,6.465 0.512,5.885C0.135,5.304 -0.053,4.617 -0.053,3.821C-0.053,2.59 0.357,1.606 1.177,0.87C1.997,0.134 3.027,-0.233 4.266,-0.233C5.441,-0.233 6.532,0.148 7.538,0.907L7.538,-0.074L9.333,-0.074L9.333,4.38L7.538,4.38L7.538,3.357C6.785,2.223 5.748,1.657 4.423,1.657C3.622,1.657 3.006,1.841 2.576,2.211C2.147,2.581 1.932,3.022 1.932,3.536C1.932,3.93 2.042,4.277 2.26,4.576C2.478,4.874 2.756,5.095 3.094,5.236C3.431,5.376 4.096,5.573 5.089,5.826C6.385,6.163 7.324,6.477 7.909,6.769C8.492,7.062 8.995,7.549 9.418,8.232C9.84,8.915 10.051,9.7 10.051,10.586C10.051,11.84 9.609,12.875 8.726,13.692C7.843,14.508 6.75,14.917 5.448,14.917C4.111,14.917 2.907,14.434 1.838,13.47L1.838,14.684L0,14.684Z" style="fill:rgb(0,123,195);fill-rule:nonzero;"/>
                    </g>
                    <g transform="matrix(1,0,0,1,433.254,324.505)">
                        <path d="M0,-11.244L0,-3.896C0,-2.756 0.058,-1.968 0.173,-1.53C0.29,-1.094 0.581,-0.724 1.044,-0.418C1.509,-0.111 2.107,0.042 2.839,0.042C3.711,0.042 4.38,-0.09 4.845,-0.353C5.31,-0.617 5.618,-0.973 5.769,-1.42C5.92,-1.867 5.996,-2.657 5.996,-3.79L5.996,-11.244L4.296,-11.244L4.296,-13.081L10.04,-13.081L10.04,-11.244L8.203,-11.244L8.203,-3.568C8.203,-2.534 8.158,-1.783 8.07,-1.315C7.982,-0.846 7.744,-0.357 7.358,0.153C6.971,0.664 6.425,1.071 5.721,1.377C5.017,1.684 4.162,1.837 3.156,1.837C2.044,1.837 1.118,1.695 0.38,1.41C-0.36,1.125 -0.916,0.742 -1.289,0.264C-1.662,-0.215 -1.91,-0.725 -2.032,-1.268C-2.156,-1.809 -2.218,-2.65 -2.218,-3.79L-2.218,-11.244L-4.033,-11.244L-4.033,-13.081L1.741,-13.081L1.741,-11.244L0,-11.244Z" style="fill:rgb(0,123,195);fill-rule:nonzero;"/>
                    </g>
                    <g transform="matrix(1,0,0,1,445.774,313.262)">
                        <path d="M0,11.011L0,-0.001L-1.9,-0.001L-1.9,-1.837L4.107,-1.837L4.107,-0.001L2.302,-0.001L2.302,11.011L6.8,11.011L6.8,6.018L8.869,6.018L8.869,12.848L-1.9,12.848L-1.9,11.011L0,11.011Z" style="fill:rgb(0,123,195);fill-rule:nonzero;"/>
                    </g>
                    <g transform="matrix(1,0,0,1,459.932,313.262)">
                        <path d="M0,11.011L0,-0.001L-3.031,-0.001L-3.031,3.747L-4.846,3.747L-4.846,-1.837L7.052,-1.837L7.052,3.747L5.237,3.747L5.237,-0.001L2.216,-0.001L2.216,11.011L4.128,11.011L4.128,12.848L-1.88,12.848L-1.88,11.011L0,11.011Z" style="fill:rgb(0,123,195);fill-rule:nonzero;"/>
                    </g>
                    <g transform="matrix(1,0,0,1,469.497,313.262)">
                        <path d="M0,11.011L0,-0.001L-1.584,-0.001L-1.584,-1.837L3.801,-1.837L3.801,-0.001L2.216,-0.001L2.216,11.011L3.801,11.011L3.801,12.848L-1.584,12.848L-1.584,11.011L0,11.011Z" style="fill:rgb(0,123,195);fill-rule:nonzero;"/>
                    </g>
                    <g transform="matrix(1,0,0,1,476.2,313.41)">
                        <path d="M0,10.863L0,-0.149L-2.101,-0.149L-2.101,-1.985L2.913,-1.985L9.354,9.43L9.354,-0.149L7.274,-0.149L7.274,-1.985L13.303,-1.985L13.303,-0.149L11.138,-0.149L11.138,12.848L8.862,12.848L1.817,0.314L1.817,10.863L3.918,10.863L3.918,12.7L-2.101,12.7L-2.101,10.863L0,10.863Z" style="fill:rgb(0,123,195);fill-rule:nonzero;"/>
                    </g>
                    <g transform="matrix(1,0,0,1,500.503,318.508)">
                        <path d="M0,0.518L5.342,0.518C5.35,0.708 5.353,0.877 5.353,1.025C5.353,3.088 4.677,4.738 3.326,5.977C1.975,7.215 0.19,7.834 -2.027,7.834C-4.681,7.834 -6.658,7.079 -7.96,5.569C-9.262,4.06 -9.913,2.274 -9.913,0.212C-9.913,-1.949 -9.247,-3.744 -7.918,-5.172C-6.587,-6.601 -4.782,-7.316 -2.501,-7.316C-0.453,-7.316 1.264,-6.693 2.65,-5.446L2.65,-7.083L4.519,-7.083L4.519,-2.258L2.65,-2.258C2.298,-3.067 1.674,-3.787 0.776,-4.418C-0.121,-5.047 -1.147,-5.362 -2.302,-5.362C-3.906,-5.362 -5.172,-4.82 -6.102,-3.737C-7.031,-2.652 -7.495,-1.348 -7.495,0.18C-7.495,1.933 -6.965,3.323 -5.907,4.35C-4.848,5.377 -3.572,5.891 -2.08,5.891C-0.912,5.891 0.13,5.567 1.046,4.915C1.96,4.265 2.495,3.411 2.65,2.355L0,2.355L0,0.518Z" style="fill:rgb(0,123,195);fill-rule:nonzero;"/>
                    </g>
                    <g transform="matrix(1,0,0,1,312.779,291.829)">
                        <path d="M0,30.115L34.451,30.115L37.18,34.762L-2.623,34.762L0,30.115ZM3.576,4.441L-13.056,34.762L-19.128,34.762L1.158,0.313L3.576,4.441ZM24.121,20.675L6.934,-9.497L9.064,-13.113L28.907,20.675L24.121,20.675ZM9.135,13.93L13.086,20.675L5.328,20.675L9.135,13.93ZM43.779,26.574L20.172,-14.705L-1.565,-14.705L-25.804,26.115L-14.84,44.82L32.638,44.82L43.779,26.574Z" style="fill:rgb(0,123,195);fill-rule:nonzero;"/>
                    </g>
                </g>
            </g>
        </g>
    </g>
</svg>
