<?xml version="1.0" encoding="UTF-8" standalone="no"?>
<!DOCTYPE svg PUBLIC "-//W3C//DTD SVG 1.1//EN" "http://www.w3.org/Graphics/SVG/1.1/DTD/svg11.dtd">
<svg width="100%" height="100%" viewBox="0 0 863 252" version="1.1" xmlns="http://www.w3.org/2000/svg" xmlns:xlink="http://www.w3.org/1999/xlink" xml:space="preserve" xmlns:serif="http://www.serif.com/" style="fill-rule:evenodd;clip-rule:evenodd;stroke-linejoin:round;stroke-miterlimit:2;">
    <g id="Artboard3" transform="matrix(1.03313,0,0,1,-3661.04,-206.212)">
        <rect x="3543.63" y="206.212" width="834.906" height="251.478" style="fill:none;"/>
        <g transform="matrix(0.96793,0,0,1,-95.7243,-1357.75)">
            <g transform="matrix(0.53557,0,0,0.305101,3652.2,1447.2)">
                <path d="M399.472,873.309L399.472,824.759L306.425,824.759L395.738,558.113L395.738,509.017L276.861,509.017L276.861,558.113L362.129,558.113L271.882,824.759L271.882,873.309L399.472,873.309Z" style="fill:rgb(55,66,74);fill-rule:nonzero;"/>
            </g>
            <g transform="matrix(0.53557,0,0,0.305101,3652.2,1447.2)">
                <path d="M539.801,873.309L539.801,824.759L457.957,824.759L457.957,713.799L539.801,713.799L539.801,665.249L457.957,665.249L457.957,558.113L539.801,558.113L539.801,509.017L427.81,509.017L427.81,873.309L539.801,873.309Z" style="fill:rgb(55,66,74);fill-rule:nonzero;"/>
            </g>
            <g transform="matrix(0.53557,0,0,0.305101,3652.2,1447.2)">
                <path d="M712.203,625.864C712.203,594.72 706.298,561.39 693.245,539.566C678.321,514.472 657.771,509.017 637.845,509.017L573.761,509.017L573.761,873.309L603.908,873.309L603.908,737.892L618.132,738.841L673.028,873.309L710.96,873.309L652.79,737.874C666.178,734.596 674.584,731.318 686.097,718.204C704.123,697.988 712.203,662.472 712.203,625.864ZM682.056,625.864C682.056,683.235 651.856,696.895 624.768,696.895L603.908,696.895L603.908,558.113L635.977,558.113C659.951,558.113 682.056,579.421 682.056,625.864Z" style="fill:rgb(55,66,74);fill-rule:nonzero;"/>
            </g>
            <g transform="matrix(0.53557,0,0,0.305101,3652.2,1447.2)">
                <path d="M948.4,691.436C948.4,585.981 900.51,501.916 840.435,501.916C780.359,501.916 732.47,585.981 732.47,691.436C732.47,796.345 780.982,880.41 840.435,880.41C899.887,880.41 948.4,796.345 948.4,691.436ZM917.942,690.889C917.942,768.478 885.569,831.861 840.435,831.861C795.612,831.861 762.928,768.478 762.928,690.889C762.928,614.393 795.923,550.465 840.435,550.465C884.946,550.465 917.942,613.847 917.942,690.889Z" style="fill:rgb(55,66,74);fill-rule:nonzero;"/>
            </g>
            <g transform="matrix(0.53557,0,0,0.305101,3652.2,1447.2)">
                <path d="M982.651,859.686L1001.44,859.686L1001.44,702.43L1097.56,702.43L1097.56,859.686L1116.35,859.686L1116.35,526.054L1097.56,526.054L1097.56,673.751L1001.44,673.751L1001.44,526.054L982.651,526.054L982.651,859.686Z" style="fill:rgb(224,134,51);fill-rule:nonzero;"/>
            </g>
            <g transform="matrix(0.53557,0,0,0.305101,3652.2,1447.2)">
                <path d="M1157.46,859.686L1175.71,859.686L1196.13,770.303L1291.98,770.303L1312.4,859.686L1332.01,859.686L1256.58,526.054L1235.34,526.054L1157.46,859.686ZM1285.72,741.624L1203.21,741.624L1244.6,557.601L1285.72,741.624Z" style="fill:rgb(224,134,51);fill-rule:nonzero;"/>
            </g>
            <g transform="matrix(0.53557,0,0,0.305101,3652.2,1447.2)">
                <path d="M1391.91,554.733L1411.24,554.733C1419.05,554.733 1425.63,555.29 1430.99,556.406C1436.34,557.521 1441.15,559.911 1445.42,563.576C1449.68,567.24 1453.04,573.056 1455.49,581.022C1457.94,588.988 1459.17,599.504 1459.17,612.569C1459.17,623.722 1457.81,633.281 1455.08,641.248C1452.36,649.214 1448.68,655.587 1444.06,660.367C1439.43,665.147 1434.39,668.572 1428.94,670.644C1423.5,672.715 1417.78,673.751 1411.79,673.751L1391.91,673.751L1391.91,554.733ZM1373.12,859.686L1391.91,859.686L1391.91,702.43L1407.43,702.43C1412.7,702.43 1416.92,702.828 1420.09,703.625C1423.27,704.421 1426.22,706.174 1428.94,708.882C1431.67,711.591 1434.25,715.972 1436.7,722.027C1439.15,728.081 1441.74,736.366 1444.46,746.882L1471.97,859.686L1492.66,859.686L1460.26,730.631L1459.71,728.241C1456.26,715.494 1453.09,706.413 1450.18,700.996C1447.28,695.579 1442.47,692.073 1435.75,690.48L1435.75,689.524C1447.91,686.656 1457.99,678.291 1465.98,664.43C1473.96,650.568 1477.96,633.281 1477.96,612.569C1477.96,582.934 1473.06,561.106 1463.25,547.085C1453.45,533.064 1439.75,526.054 1422.14,526.054L1373.12,526.054L1373.12,859.686Z" style="fill:rgb(224,134,51);fill-rule:nonzero;"/>
            </g>
            <g transform="matrix(0.53557,0,0,0.305101,3652.2,1447.2)">
                <path d="M1537.59,859.686L1556.38,859.686L1556.38,559.035L1556.92,559.035L1628.26,859.686L1644.33,859.686L1713.49,559.035L1714.04,559.035L1714.04,859.686L1732.83,859.686L1732.83,526.054L1705.87,526.054L1636.16,819.535L1566.73,526.054L1537.59,526.054L1537.59,859.686Z" style="fill:rgb(246,136,45);fill-rule:nonzero;"/>
            </g>
            <g transform="matrix(1.06738,0,0,1.18002,4092.72,1636.28)">
                <path d="M0,30.115L34.451,30.115L37.18,34.762L-2.623,34.762L0,30.115ZM3.576,4.441L-13.056,34.762L-19.128,34.762L1.158,0.313L3.576,4.441ZM24.121,20.675L6.934,-9.497L9.064,-13.113L28.907,20.675L24.121,20.675ZM9.135,13.93L13.086,20.675L5.328,20.675L9.135,13.93ZM43.779,26.574L20.172,-14.705L-1.565,-14.705L-25.804,26.115L-14.84,44.82L32.638,44.82L43.779,26.574Z" style="fill:rgb(0,101,189);fill-rule:nonzero;"/>
            </g>
            <g transform="matrix(1.00949,0,0,1,-132.262,1245.91)">
                <path d="M3897.31,485.761L3902.07,485.761L3902.07,500.461L3920.24,500.461L3920.24,485.761L3925,485.761L3925,521.161L3920.24,521.161L3920.24,504.961L3902.07,504.961L3902.07,521.161L3897.31,521.161L3897.31,485.761Z" style="fill:rgb(129,138,143);fill-rule:nonzero;"/>
                <path d="M3945.01,509.311C3945.01,507.577 3945.33,505.961 3945.97,504.461C3946.62,502.961 3947.5,501.644 3948.62,500.511C3949.75,499.377 3951.07,498.486 3952.59,497.836C3954.11,497.186 3955.74,496.861 3957.49,496.861C3959.24,496.861 3960.88,497.186 3962.39,497.836C3963.91,498.486 3965.23,499.377 3966.36,500.511C3967.48,501.644 3968.36,502.961 3969.01,504.461C3969.65,505.961 3969.97,507.577 3969.97,509.311C3969.97,511.044 3969.65,512.669 3969.01,514.186C3968.36,515.702 3967.48,517.019 3966.36,518.136C3965.23,519.252 3963.91,520.136 3962.39,520.786C3960.88,521.436 3959.24,521.761 3957.49,521.761C3955.74,521.761 3954.11,521.436 3952.59,520.786C3951.07,520.136 3949.75,519.252 3948.62,518.136C3947.5,517.019 3946.62,515.702 3945.97,514.186C3945.33,512.669 3945.01,511.044 3945.01,509.311ZM3949.76,509.311C3949.76,510.511 3949.95,511.619 3950.31,512.636C3950.67,513.652 3951.18,514.519 3951.84,515.236C3952.5,515.952 3953.31,516.519 3954.27,516.936C3955.23,517.352 3956.3,517.561 3957.49,517.561C3958.68,517.561 3959.75,517.352 3960.71,516.936C3961.67,516.519 3962.48,515.952 3963.14,515.236C3963.8,514.519 3964.31,513.652 3964.67,512.636C3965.04,511.619 3965.22,510.511 3965.22,509.311C3965.22,508.111 3965.04,507.002 3964.67,505.986C3964.31,504.969 3963.8,504.102 3963.14,503.386C3962.48,502.669 3961.67,502.102 3960.71,501.686C3959.75,501.269 3958.68,501.061 3957.49,501.061C3956.3,501.061 3955.23,501.269 3954.27,501.686C3953.31,502.102 3952.5,502.669 3951.84,503.386C3951.18,504.102 3950.67,504.969 3950.31,505.986C3949.95,507.002 3949.76,508.111 3949.76,509.311Z" style="fill:rgb(129,138,143);fill-rule:nonzero;"/>
                <path d="M3988.84,497.461L3993,497.461L3993,501.161L3993.1,501.161C3993.2,500.827 3993.46,500.411 3993.87,499.911C3994.28,499.411 3994.81,498.936 3995.45,498.486C3996.1,498.036 3996.86,497.652 3997.73,497.336C3998.61,497.019 3999.57,496.861 4000.63,496.861C4002.38,496.861 4003.85,497.227 4005.04,497.961C4006.23,498.694 4007.2,499.794 4007.96,501.261C4008.72,499.794 4009.79,498.694 4011.18,497.961C4012.57,497.227 4013.97,496.861 4015.39,496.861C4017.21,496.861 4018.69,497.161 4019.85,497.761C4021,498.361 4021.91,499.152 4022.57,500.136C4023.23,501.119 4023.69,502.236 4023.93,503.486C4024.18,504.736 4024.31,506.027 4024.31,507.361L4024.31,521.161L4019.85,521.161L4019.85,507.961C4019.85,507.061 4019.79,506.194 4019.68,505.361C4019.56,504.527 4019.32,503.794 4018.96,503.161C4018.59,502.527 4018.08,502.019 4017.42,501.636C4016.76,501.252 4015.89,501.061 4014.8,501.061C4012.65,501.061 4011.12,501.727 4010.19,503.061C4009.26,504.394 4008.8,506.111 4008.8,508.211L4008.8,521.161L4004.35,521.161L4004.35,508.761C4004.35,507.627 4004.29,506.594 4004.17,505.661C4004.06,504.727 4003.83,503.919 4003.48,503.236C4003.13,502.552 4002.64,502.019 4001.99,501.636C4001.35,501.252 4000.48,501.061 3999.39,501.061C3998.6,501.061 3997.83,501.219 3997.09,501.536C3996.35,501.852 3995.69,502.327 3995.13,502.961C3994.57,503.594 3994.13,504.402 3993.8,505.386C3993.47,506.369 3993.3,507.527 3993.3,508.861L3993.3,521.161L3988.84,521.161L3988.84,497.461Z" style="fill:rgb(129,138,143);fill-rule:nonzero;"/>
                <path d="M4061.75,507.361C4061.72,506.361 4061.56,505.444 4061.28,504.611C4061,503.777 4060.58,503.052 4060.02,502.436C4059.46,501.819 4058.75,501.336 4057.91,500.986C4057.07,500.636 4056.09,500.461 4054.97,500.461C4053.88,500.461 4052.88,500.669 4051.97,501.086C4051.06,501.502 4050.29,502.044 4049.66,502.711C4049.04,503.377 4048.55,504.119 4048.2,504.936C4047.86,505.752 4047.68,506.561 4047.68,507.361L4061.75,507.361ZM4047.68,510.961C4047.68,511.994 4047.91,512.936 4048.35,513.786C4048.8,514.636 4049.39,515.361 4050.11,515.961C4050.84,516.561 4051.68,517.027 4052.64,517.361C4053.6,517.694 4054.59,517.861 4055.61,517.861C4057,517.861 4058.2,517.536 4059.22,516.886C4060.25,516.236 4061.19,515.377 4062.05,514.311L4065.42,516.911C4062.94,520.144 4059.47,521.761 4055.01,521.761C4053.17,521.761 4051.49,521.444 4049.99,520.811C4048.49,520.177 4047.21,519.302 4046.17,518.186C4045.13,517.069 4044.33,515.752 4043.77,514.236C4043.21,512.719 4042.93,511.077 4042.93,509.311C4042.93,507.544 4043.24,505.902 4043.85,504.386C4044.46,502.869 4045.3,501.552 4046.37,500.436C4047.45,499.319 4048.72,498.444 4050.21,497.811C4051.7,497.177 4053.31,496.861 4055.06,496.861C4057.14,496.861 4058.9,497.227 4060.34,497.961C4061.78,498.694 4062.96,499.652 4063.88,500.836C4064.81,502.019 4065.47,503.352 4065.89,504.836C4066.3,506.319 4066.51,507.827 4066.51,509.361L4066.51,510.961L4047.68,510.961Z" style="fill:rgb(129,138,143);fill-rule:nonzero;"/>
                <path d="M4114.35,513.761C4115.21,515.061 4116.31,516.019 4117.65,516.636C4118.98,517.252 4120.36,517.561 4121.78,517.561C4122.57,517.561 4123.38,517.436 4124.21,517.186C4125.03,516.936 4125.78,516.561 4126.46,516.061C4127.14,515.561 4127.69,514.944 4128.12,514.211C4128.55,513.477 4128.77,512.627 4128.77,511.661C4128.77,510.294 4128.34,509.252 4127.48,508.536C4126.62,507.819 4125.55,507.219 4124.28,506.736C4123.01,506.252 4121.62,505.786 4120.12,505.336C4118.62,504.886 4117.23,504.261 4115.96,503.461C4114.69,502.661 4113.62,501.586 4112.77,500.236C4111.91,498.886 4111.48,497.061 4111.48,494.761C4111.48,493.727 4111.7,492.627 4112.15,491.461C4112.59,490.294 4113.3,489.227 4114.25,488.261C4115.21,487.294 4116.44,486.486 4117.94,485.836C4119.44,485.186 4121.25,484.861 4123.37,484.861C4125.28,484.861 4127.11,485.127 4128.86,485.661C4130.61,486.194 4132.15,487.277 4133.47,488.911L4129.61,492.461C4129.01,491.527 4128.17,490.777 4127.08,490.211C4125.99,489.644 4124.75,489.361 4123.37,489.361C4122.05,489.361 4120.95,489.536 4120.07,489.886C4119.2,490.236 4118.5,490.686 4117.97,491.236C4117.44,491.786 4117.07,492.377 4116.85,493.011C4116.64,493.644 4116.53,494.227 4116.53,494.761C4116.53,496.261 4116.96,497.411 4117.82,498.211C4118.68,499.011 4119.74,499.661 4121.01,500.161C4122.28,500.661 4123.67,501.111 4125.17,501.511C4126.68,501.911 4128.06,502.469 4129.33,503.186C4130.61,503.902 4131.67,504.869 4132.53,506.086C4133.39,507.302 4133.82,508.977 4133.82,511.111C4133.82,512.811 4133.49,514.344 4132.85,515.711C4132.21,517.077 4131.34,518.227 4130.25,519.161C4129.16,520.094 4127.87,520.811 4126.39,521.311C4124.9,521.811 4123.32,522.061 4121.63,522.061C4119.39,522.061 4117.26,521.661 4115.24,520.861C4113.23,520.061 4111.63,518.827 4110.44,517.161L4114.35,513.761Z" style="fill:rgb(129,138,143);fill-rule:nonzero;"/>
                <path d="M4165.66,509.761C4164.61,509.761 4163.53,509.819 4162.42,509.936C4161.31,510.052 4160.31,510.277 4159.4,510.611C4158.49,510.944 4157.75,511.411 4157.17,512.011C4156.59,512.611 4156.3,513.377 4156.3,514.311C4156.3,515.677 4156.76,516.661 4157.67,517.261C4158.57,517.861 4159.8,518.161 4161.36,518.161C4162.58,518.161 4163.62,517.952 4164.48,517.536C4165.33,517.119 4166.03,516.577 4166.56,515.911C4167.09,515.244 4167.46,514.502 4167.69,513.686C4167.93,512.869 4168.04,512.061 4168.04,511.261L4168.04,509.761L4165.66,509.761ZM4153.08,500.361C4154.34,499.194 4155.79,498.319 4157.44,497.736C4159.09,497.152 4160.74,496.861 4162.4,496.861C4164.11,496.861 4165.59,497.077 4166.83,497.511C4168.07,497.944 4169.08,498.527 4169.88,499.261C4170.67,499.994 4171.25,500.836 4171.63,501.786C4172.01,502.736 4172.2,503.727 4172.2,504.761L4172.2,516.861C4172.2,517.694 4172.22,518.461 4172.25,519.161C4172.28,519.861 4172.34,520.527 4172.4,521.161L4168.44,521.161C4168.34,519.961 4168.29,518.761 4168.29,517.561L4168.19,517.561C4167.2,519.094 4166.03,520.177 4164.67,520.811C4163.32,521.444 4161.75,521.761 4159.97,521.761C4158.88,521.761 4157.84,521.611 4156.85,521.311C4155.86,521.011 4154.99,520.561 4154.25,519.961C4153.51,519.361 4152.92,518.619 4152.49,517.736C4152.06,516.852 4151.85,515.827 4151.85,514.661C4151.85,513.127 4152.18,511.844 4152.86,510.811C4153.54,509.777 4154.46,508.936 4155.64,508.286C4156.81,507.636 4158.18,507.169 4159.75,506.886C4161.31,506.602 4162.99,506.461 4164.77,506.461L4168.04,506.461L4168.04,505.461C4168.04,504.861 4167.93,504.261 4167.69,503.661C4167.46,503.061 4167.12,502.519 4166.65,502.036C4166.19,501.552 4165.61,501.169 4164.92,500.886C4164.23,500.602 4163.4,500.461 4162.44,500.461C4161.59,500.461 4160.84,500.544 4160.19,500.711C4159.55,500.877 4158.96,501.086 4158.43,501.336C4157.9,501.586 4157.43,501.877 4157,502.211C4156.57,502.544 4156.15,502.861 4155.76,503.161L4153.08,500.361Z" style="fill:rgb(129,138,143);fill-rule:nonzero;"/>
                <path d="M4193.7,501.361L4188.65,501.361L4188.65,497.461L4193.7,497.461L4193.7,492.161C4193.7,488.994 4194.3,486.636 4195.51,485.086C4196.71,483.536 4198.78,482.761 4201.72,482.761C4202.22,482.761 4202.74,482.777 4203.28,482.811C4203.83,482.844 4204.41,482.944 4205.04,483.111L4204.55,487.111C4204.12,486.944 4203.7,486.827 4203.31,486.761C4202.91,486.694 4202.48,486.661 4202.02,486.661C4201.19,486.661 4200.53,486.786 4200.04,487.036C4199.54,487.286 4199.15,487.644 4198.88,488.111C4198.59,488.577 4198.41,489.136 4198.33,489.786C4198.25,490.436 4198.21,491.177 4198.21,492.011L4198.21,497.461L4203.51,497.461L4203.51,501.361L4198.16,501.361L4198.16,521.161L4193.7,521.161L4193.7,501.361Z" style="fill:rgb(129,138,143);fill-rule:nonzero;"/>
                <path d="M4239.17,507.361C4239.13,506.361 4238.98,505.444 4238.7,504.611C4238.42,503.777 4237.99,503.052 4237.43,502.436C4236.87,501.819 4236.17,501.336 4235.33,500.986C4234.49,500.636 4233.5,500.461 4232.38,500.461C4231.29,500.461 4230.29,500.669 4229.39,501.086C4228.48,501.502 4227.71,502.044 4227.08,502.711C4226.45,503.377 4225.97,504.119 4225.62,504.936C4225.27,505.752 4225.1,506.561 4225.1,507.361L4239.17,507.361ZM4225.1,510.961C4225.1,511.994 4225.32,512.936 4225.77,513.786C4226.22,514.636 4226.8,515.361 4227.53,515.961C4228.25,516.561 4229.1,517.027 4230.05,517.361C4231.01,517.694 4232,517.861 4233.02,517.861C4234.41,517.861 4235.62,517.536 4236.64,516.886C4237.66,516.236 4238.61,515.377 4239.46,514.311L4242.83,516.911C4240.36,520.144 4236.89,521.761 4232.43,521.761C4230.58,521.761 4228.91,521.444 4227.4,520.811C4225.9,520.177 4224.63,519.302 4223.59,518.186C4222.55,517.069 4221.75,515.752 4221.19,514.236C4220.63,512.719 4220.35,511.077 4220.35,509.311C4220.35,507.544 4220.65,505.902 4221.26,504.386C4221.87,502.869 4222.72,501.552 4223.79,500.436C4224.86,499.319 4226.14,498.444 4227.63,497.811C4229.11,497.177 4230.73,496.861 4232.48,496.861C4234.56,496.861 4236.32,497.227 4237.76,497.961C4239.19,498.694 4240.37,499.652 4241.3,500.836C4242.22,502.019 4242.89,503.352 4243.3,504.836C4243.72,506.319 4243.92,507.827 4243.92,509.361L4243.92,510.961L4225.1,510.961Z" style="fill:rgb(129,138,143);fill-rule:nonzero;"/>
                <path d="M4344.82,485.761L4367.45,485.761L4367.45,490.261L4349.57,490.261L4349.57,500.811L4366.21,500.811L4366.21,505.311L4349.57,505.311L4349.57,516.661L4368.34,516.661L4368.34,521.161L4344.82,521.161L4344.82,485.761Z" style="fill:rgb(129,138,143);fill-rule:nonzero;"/>
                <path d="M4384.39,497.461L4389.54,497.461L4396.57,515.611L4403.31,497.461L4408.06,497.461L4398.85,521.161L4393.95,521.161L4384.39,497.461Z" style="fill:rgb(129,138,143);fill-rule:nonzero;"/>
                <path d="M4442.69,507.361C4442.65,506.361 4442.5,505.444 4442.22,504.611C4441.94,503.777 4441.51,503.052 4440.95,502.436C4440.39,501.819 4439.69,501.336 4438.85,500.986C4438.01,500.636 4437.02,500.461 4435.9,500.461C4434.81,500.461 4433.81,500.669 4432.9,501.086C4432,501.502 4431.23,502.044 4430.6,502.711C4429.97,503.377 4429.49,504.119 4429.14,504.936C4428.79,505.752 4428.62,506.561 4428.62,507.361L4442.69,507.361ZM4428.62,510.961C4428.62,511.994 4428.84,512.936 4429.29,513.786C4429.73,514.636 4430.32,515.361 4431.05,515.961C4431.77,516.561 4432.61,517.027 4433.57,517.361C4434.53,517.694 4435.52,517.861 4436.54,517.861C4437.93,517.861 4439.14,517.536 4440.16,516.886C4441.18,516.236 4442.12,515.377 4442.98,514.311L4446.35,516.911C4443.88,520.144 4440.41,521.761 4435.95,521.761C4434.1,521.761 4432.43,521.444 4430.92,520.811C4429.42,520.177 4428.15,519.302 4427.11,518.186C4426.07,517.069 4425.27,515.752 4424.71,514.236C4424.15,512.719 4423.86,511.077 4423.86,509.311C4423.86,507.544 4424.17,505.902 4424.78,504.386C4425.39,502.869 4426.23,501.552 4427.31,500.436C4428.38,499.319 4429.66,498.444 4431.15,497.811C4432.63,497.177 4434.25,496.861 4436,496.861C4438.08,496.861 4439.84,497.227 4441.27,497.961C4442.71,498.694 4443.89,499.652 4444.82,500.836C4445.74,502.019 4446.41,503.352 4446.82,504.836C4447.23,506.319 4447.44,507.827 4447.44,509.361L4447.44,510.961L4428.62,510.961Z" style="fill:rgb(129,138,143);fill-rule:nonzero;"/>
                <path d="M4466.06,497.461L4470.52,497.461L4470.52,501.111L4470.62,501.111C4470.92,500.477 4471.31,499.902 4471.81,499.386C4472.31,498.869 4472.86,498.427 4473.47,498.061C4474.08,497.694 4474.75,497.402 4475.48,497.186C4476.2,496.969 4476.93,496.861 4477.65,496.861C4478.38,496.861 4479.04,496.961 4479.64,497.161L4479.44,502.011C4479.07,501.911 4478.71,501.827 4478.35,501.761C4477.98,501.694 4477.62,501.661 4477.26,501.661C4475.08,501.661 4473.41,502.277 4472.26,503.511C4471.1,504.744 4470.52,506.661 4470.52,509.261L4470.52,521.161L4466.06,521.161L4466.06,497.461Z" style="fill:rgb(129,138,143);fill-rule:nonzero;"/>
                <path d="M4494.84,497.461L4499.99,497.461L4506.98,515.961L4507.07,515.961L4513.71,497.461L4518.52,497.461L4507.37,526.261C4506.98,527.294 4506.56,528.236 4506.13,529.086C4505.7,529.936 4505.19,530.661 4504.6,531.261C4504,531.861 4503.29,532.327 4502.44,532.661C4501.6,532.994 4500.57,533.161 4499.35,533.161C4498.69,533.161 4498.02,533.119 4497.34,533.036C4496.66,532.952 4496.01,532.777 4495.39,532.511L4495.93,528.411C4496.82,528.777 4497.71,528.961 4498.61,528.961C4499.3,528.961 4499.89,528.869 4500.36,528.686C4500.84,528.502 4501.26,528.236 4501.6,527.886C4501.95,527.536 4502.24,527.127 4502.47,526.661C4502.7,526.194 4502.93,525.661 4503.16,525.061L4504.6,521.311L4494.84,497.461Z" style="fill:rgb(129,138,143);fill-rule:nonzero;"/>
                <path d="M4567.85,516.661L4573.84,516.661C4575.86,516.661 4577.76,516.386 4579.56,515.836C4581.36,515.286 4582.94,514.461 4584.29,513.361C4585.65,512.261 4586.72,510.886 4587.51,509.236C4588.3,507.586 4588.7,505.661 4588.7,503.461C4588.7,502.327 4588.52,501.002 4588.16,499.486C4587.79,497.969 4587.11,496.527 4586.1,495.161C4585.09,493.794 4583.7,492.636 4581.91,491.686C4580.13,490.736 4577.82,490.261 4574.98,490.261L4567.85,490.261L4567.85,516.661ZM4563.09,485.761L4575.33,485.761C4577.8,485.761 4579.98,486.044 4581.84,486.611C4583.71,487.177 4585.32,487.936 4586.69,488.886C4588.07,489.836 4589.2,490.927 4590.11,492.161C4591.02,493.394 4591.74,494.661 4592.27,495.961C4592.8,497.261 4593.18,498.561 4593.41,499.861C4593.64,501.161 4593.75,502.361 4593.75,503.461C4593.75,505.727 4593.34,507.919 4592.51,510.036C4591.69,512.152 4590.47,514.036 4588.85,515.686C4587.23,517.336 4585.23,518.661 4582.83,519.661C4580.44,520.661 4577.67,521.161 4574.53,521.161L4563.09,521.161L4563.09,485.761Z" style="fill:rgb(129,138,143);fill-rule:nonzero;"/>
                <path d="M4625.4,509.761C4624.35,509.761 4623.26,509.819 4622.16,509.936C4621.05,510.052 4620.05,510.277 4619.14,510.611C4618.23,510.944 4617.49,511.411 4616.91,512.011C4616.33,512.611 4616.04,513.377 4616.04,514.311C4616.04,515.677 4616.49,516.661 4617.4,517.261C4618.31,517.861 4619.54,518.161 4621.09,518.161C4622.32,518.161 4623.36,517.952 4624.21,517.536C4625.07,517.119 4625.77,516.577 4626.29,515.911C4626.82,515.244 4627.2,514.502 4627.43,513.686C4627.66,512.869 4627.78,512.061 4627.78,511.261L4627.78,509.761L4625.4,509.761ZM4612.82,500.361C4614.08,499.194 4615.53,498.319 4617.18,497.736C4618.83,497.152 4620.48,496.861 4622.13,496.861C4623.85,496.861 4625.33,497.077 4626.57,497.511C4627.8,497.944 4628.82,498.527 4629.61,499.261C4630.4,499.994 4630.99,500.836 4631.37,501.786C4631.75,502.736 4631.94,503.727 4631.94,504.761L4631.94,516.861C4631.94,517.694 4631.96,518.461 4631.99,519.161C4632.02,519.861 4632.07,520.527 4632.14,521.161L4628.18,521.161C4628.08,519.961 4628.03,518.761 4628.03,517.561L4627.93,517.561C4626.94,519.094 4625.77,520.177 4624.41,520.811C4623.06,521.444 4621.49,521.761 4619.71,521.761C4618.62,521.761 4617.58,521.611 4616.59,521.311C4615.6,521.011 4614.73,520.561 4613.98,519.961C4613.24,519.361 4612.66,518.619 4612.23,517.736C4611.8,516.852 4611.58,515.827 4611.58,514.661C4611.58,513.127 4611.92,511.844 4612.6,510.811C4613.28,509.777 4614.2,508.936 4615.37,508.286C4616.54,507.636 4617.91,507.169 4619.48,506.886C4621.05,506.602 4622.73,506.461 4624.51,506.461L4627.78,506.461L4627.78,505.461C4627.78,504.861 4627.66,504.261 4627.43,503.661C4627.2,503.061 4626.86,502.519 4626.39,502.036C4625.93,501.552 4625.35,501.169 4624.66,500.886C4623.97,500.602 4623.14,500.461 4622.18,500.461C4621.32,500.461 4620.57,500.544 4619.93,500.711C4619.28,500.877 4618.7,501.086 4618.17,501.336C4617.64,501.586 4617.16,501.877 4616.73,502.211C4616.31,502.544 4615.89,502.861 4615.5,503.161L4612.82,500.361Z" style="fill:rgb(129,138,143);fill-rule:nonzero;"/>
                <path d="M4648.88,497.461L4654.03,497.461L4661.01,515.961L4661.11,515.961L4667.75,497.461L4672.56,497.461L4661.41,526.261C4661.01,527.294 4660.6,528.236 4660.17,529.086C4659.74,529.936 4659.23,530.661 4658.64,531.261C4658.04,531.861 4657.32,532.327 4656.48,532.661C4655.64,532.994 4654.61,533.161 4653.39,533.161C4652.73,533.161 4652.06,533.119 4651.38,533.036C4650.7,532.952 4650.05,532.777 4649.42,532.511L4649.97,528.411C4650.86,528.777 4651.75,528.961 4652.64,528.961C4653.34,528.961 4653.92,528.869 4654.4,528.686C4654.88,528.502 4655.29,528.236 4655.64,527.886C4655.99,527.536 4656.28,527.127 4656.51,526.661C4656.74,526.194 4656.97,525.661 4657.2,525.061L4658.64,521.311L4648.88,497.461Z" style="fill:rgb(129,138,143);fill-rule:nonzero;"/>
            </g>
            <g transform="matrix(0.633611,0,0,0.633611,1436.49,1322.47)">
                <circle cx="4371.58" cy="674.886" r="8.637" style="fill:rgb(119,133,144);"/>
            </g>
        </g>
    </g>
</svg>
